<svg xmlns="http://www.w3.org/2000/svg" viewBox="0 0 266.64 39.7"><title>connect</title><g id="Layer_2" data-name="Layer 2"><g id="Layer_1-2" data-name="Layer 1"><path d="M79.73,36.26H52V33.47H79.66a4.78,4.78,0,0,0,5-4.52,4.71,4.71,0,0,0-3.93-4.47c-.65-.17-1.34-.28-2.22-.43,0,0-2.06-.21-7.58-.88-4.55-.49-6.87-.72-12.64-1.45a20.26,20.26,0,0,1-2.31-.39A7.46,7.46,0,0,1,53.05,20c-1.07-.78-1.2-1.82-1.2-3.11a4.59,4.59,0,0,1,4.49-4.66H66.67V15H57a1.91,1.91,0,0,0-1.92,1.89,1.66,1.66,0,0,0,1.2,1.64c.7.25,3.49.56,4.53.72.78.13,10.1,1.19,10.1,1.19s9.12,1.12,9.79,1.22c4.08.49,6.92,3.48,6.92,7.31A7.45,7.45,0,0,1,80,36.25h-.3ZM44.47,0h2.8V9.23h-2.8Zm0,36.44h2.81V12.25H44.46ZM33.61,16c.83-1.31,1.23-1.3,1.75-1.31a1.79,1.79,0,0,1,1.11.28,1.75,1.75,0,0,1,.65,1.47v20H40c0-7.85,0-12.27,0-20.13a4,4,0,0,0-.54-2,4,4,0,0,0-1.16-1.38,3.92,3.92,0,0,0-2-.82,8.55,8.55,0,0,0-1.6,0c-1.81.09-2.92,1.46-4.43,3.9,0,0-6.41,11.44-8.5,14.7,0-5.61,0-8,0-14.41a4.32,4.32,0,0,0-.53-2A4.11,4.11,0,0,0,20,12.94a4,4,0,0,0-2-.82,7.88,7.88,0,0,0-1.61,0c-1.8.09-2.92,1.46-4.42,3.9,0,0-7.94,14.16-9,15.47L0,36.51H3.41L15.33,16c.84-1.31,1.21-1.3,1.75-1.31a1.8,1.8,0,0,1,1.11.28,1.69,1.69,0,0,1,.64,1.47v20h2.85Zm37.52-4.94a2.32,2.32,0,0,1,1.2.32,2.18,2.18,0,0,1,.93.9,2.56,2.56,0,0,1,0,2.44,2.34,2.34,0,0,1-.91.91,2.49,2.49,0,0,1-1.22.31,2.56,2.56,0,0,1-1.21-.31,2.25,2.25,0,0,1-.9-.91,2.42,2.42,0,0,1,0-2.44,2.08,2.08,0,0,1,.93-.9,2.33,2.33,0,0,1,1.18-.32m0,.41a2.07,2.07,0,0,0-1,.26,1.92,1.92,0,0,0-.76.76,2.08,2.08,0,0,0-.28,1,2.19,2.19,0,0,0,.27,1,1.91,1.91,0,0,0,.75.74,2,2,0,0,0,1,.28,2.08,2.08,0,0,0,1-.28,1.88,1.88,0,0,0,.74-.74,2,2,0,0,0,0-2,1.74,1.74,0,0,0-.76-.76,2,2,0,0,0-1-.26m-1.07,3.38V12.25H71a2.18,2.18,0,0,1,.67.07.64.64,0,0,1,.33.25.62.62,0,0,1,.13.38.72.72,0,0,1-.22.51.75.75,0,0,1-.54.23.77.77,0,0,1,.22.15,2.78,2.78,0,0,1,.4.52l.32.51h-.54l-.21-.41a2.44,2.44,0,0,0-.45-.62.55.55,0,0,0-.34-.09h-.25v1.12Zm.43-1.47H71a1,1,0,0,0,.51-.11.37.37,0,0,0,.13-.3.31.31,0,0,0-.24-.34A1.29,1.29,0,0,0,71,12.6h-.48Z" style="fill:#fff"/><polygon points="262.52 14.58 262.52 12.05 261.63 12.05 261.63 11.71 263.78 11.71 263.78 12.05 262.88 12.05 262.88 14.58 262.52 14.58" style="fill:#fff"/><path d="M264.05,14.58V11.72h.54l.64,2,.13.42.14-.46.66-2h.48v2.87h-.35V12.19l-.79,2.39h-.32l-.79-2.44v2.44Z" style="fill:#fff"/><path d="M120.58,27.48l3.26.82a11,11,0,0,1-3.69,6.11,10.13,10.13,0,0,1-6.49,2.1,11.69,11.69,0,0,1-6.47-1.62,10,10,0,0,1-3.78-4.68,16.67,16.67,0,0,1-1.3-6.59,14.48,14.48,0,0,1,1.46-6.7,10.08,10.08,0,0,1,4.18-4.34,12.17,12.17,0,0,1,6-1.49,10.06,10.06,0,0,1,6.2,1.88,9.73,9.73,0,0,1,3.51,5.28l-3.21.76a7.58,7.58,0,0,0-2.48-3.91,6.64,6.64,0,0,0-4.09-1.22,7.93,7.93,0,0,0-4.74,1.36,7.17,7.17,0,0,0-2.67,3.64,14.82,14.82,0,0,0-.77,4.72,15,15,0,0,0,.91,5.48,6.78,6.78,0,0,0,2.85,3.49,8,8,0,0,0,4.17,1.16A7,7,0,0,0,118,32.15a8,8,0,0,0,2.56-4.67" style="fill:#fff"/><path d="M129.35,24.17a9.79,9.79,0,0,0,2.39,7,8.34,8.34,0,0,0,12,0c1.58-1.72,2.37-4.17,2.37-7.33a12.53,12.53,0,0,0-1-5.24,7.75,7.75,0,0,0-3-3.47,8.1,8.1,0,0,0-4.39-1.23,8.32,8.32,0,0,0-5.94,2.37q-2.49,2.37-2.49,7.92M126,24.12q0-6.12,3.29-9.58a11.16,11.16,0,0,1,8.48-3.46,11.81,11.81,0,0,1,6.14,1.62,10.71,10.71,0,0,1,4.17,4.54,14.82,14.82,0,0,1,1.43,6.6A14.45,14.45,0,0,1,148,30.53,10.37,10.37,0,0,1,143.72,35a12.26,12.26,0,0,1-6,1.51,11.71,11.71,0,0,1-6.21-1.67,10.85,10.85,0,0,1-4.14-4.58A13.85,13.85,0,0,1,126,24.12" style="fill:#fff"/><polygon points="195.44 36.09 195.44 11.52 213.21 11.52 213.21 14.41 198.69 14.41 198.69 21.94 212.28 21.94 212.28 24.83 198.69 24.83 198.69 33.19 213.78 33.19 213.78 36.09 195.44 36.09" style="fill:#fff"/><path d="M235,27.48l3.25.82a10.94,10.94,0,0,1-3.68,6.11,10.15,10.15,0,0,1-6.49,2.1,11.69,11.69,0,0,1-6.47-1.62,10.09,10.09,0,0,1-3.79-4.68,16.84,16.84,0,0,1-1.3-6.59,14.48,14.48,0,0,1,1.47-6.7,10.08,10.08,0,0,1,4.18-4.34,12.17,12.17,0,0,1,6-1.49,10.1,10.1,0,0,1,6.2,1.88,9.72,9.72,0,0,1,3.5,5.28l-3.2.76a7.64,7.64,0,0,0-2.48-3.91A6.66,6.66,0,0,0,228,13.88a7.93,7.93,0,0,0-4.74,1.36,7.12,7.12,0,0,0-2.67,3.64,14.55,14.55,0,0,0-.77,4.72,15,15,0,0,0,.91,5.48,6.81,6.81,0,0,0,2.84,3.49,8,8,0,0,0,4.18,1.16,7,7,0,0,0,4.62-1.58A8,8,0,0,0,235,27.48" style="fill:#fff"/><polygon points="247.6 36.09 247.6 14.41 239.51 14.41 239.51 11.52 258.99 11.52 258.99 14.41 250.86 14.41 250.86 36.09 247.6 36.09" style="fill:#fff"/><path d="M192.71,11.87v-.36h-3.12V31.19a1.42,1.42,0,0,1-.41,1.12,1,1,0,0,1-.63.21h-.1c-.32,0-.54,0-1.13-1.07l-8-15.93c-1.38-2.55-2.37-3.86-4-4l-.26,0a5.64,5.64,0,0,0-1.16,0l-.27,0a3.47,3.47,0,0,0-1.62.82,4.16,4.16,0,0,0-1.08,1.46,4.4,4.4,0,0,0-.41,1.32,4.54,4.54,0,0,0-.07.75c0,4.13,0,11.44,0,15.83a1,1,0,0,1-.33.53,1.05,1.05,0,0,1-.64.21h-.09c-.32,0-.54,0-1.13-1.07l-8-15.93c-1.37-2.55-2.37-3.86-4-4l-.26,0a5.64,5.64,0,0,0-1.16,0,3.44,3.44,0,0,0-1.89.87,4,4,0,0,0-1.08,1.46A4.53,4.53,0,0,0,151.3,16c0,6.14,0,19.33,0,19.46v.37h3.12V16.1a1.41,1.41,0,0,1,.41-1.12,1,1,0,0,1,.63-.21h.1c.3,0,.46,0,.88.67l6.72,13.28,1.3,2.6h0l.35.65h0c1.32,2.43,2.31,3.67,3.91,3.77l.27,0,.54,0a4.45,4.45,0,0,0,.61,0l.28-.05a3.48,3.48,0,0,0,1.62-.83,4,4,0,0,0,1.08-1.45,4.4,4.4,0,0,0,.41-1.32,4.67,4.67,0,0,0,.07-.76c0-4.12,0-11.43,0-15.82a1,1,0,0,1,.33-.53,1,1,0,0,1,.63-.21h.1c.3,0,.47,0,.88.67l6.72,13.28,1.3,2.6h0l.34.65h0c1.32,2.43,2.31,3.67,3.92,3.77l.26,0,.54,0a4.59,4.59,0,0,0,.62,0,3.48,3.48,0,0,0,1.89-.88,4,4,0,0,0,1.08-1.45,4.61,4.61,0,0,0,.48-2.08c0-6.13,0-19.32,0-19.46" style="fill:#d1d3d4"/><line x1="94.61" y1="6.8" x2="94.61" y2="39.7" style="fill:none;stroke:#fff;stroke-miterlimit:10"/></g></g></svg>